<svg xmlns="http://www.w3.org/2000/svg" viewBox="0 0 410 404" fill="none">
  <path d="M399.641 59.5241L215.643 388.545C211.85 395.344 202.12 395.39 198.266 388.627L10.4868 59.6066C6.30861 52.2768 12.5731 43.3138 20.877 44.3137L204.525 66.4151C205.684 66.5546 206.856 66.5533 208.014 66.4113L389.211 44.2044C397.503 43.1873 403.78 52.1265 399.641 59.5241Z" fill="#41D1FF"/>
  <path d="M292.965 1.57461L156.653 28.2494C154.413 28.6875 152.765 30.5936 152.665 32.8732L144.283 222.521C144.088 226.929 148.14 230.352 152.431 229.359L190.363 220.58C194.964 219.515 199.121 223.568 198.174 228.194L186.905 283.27C185.767 288.834 190.993 293.602 196.392 291.83L219.823 284.139C225.232 282.363 230.47 287.151 229.315 292.722L211.388 379.307C210.268 384.715 217.462 387.664 220.49 383.033L222.513 379.939L333.544 103.604C336.569 96.0739 330.396 88.1615 322.404 89.6559L283.357 96.9589C278.686 97.8325 274.714 93.4587 276.09 88.9244L301.571 4.95788C302.95 0.412742 297.653 0.657844 292.965 1.57461Z" fill="#BD34FE"/>
  <path d="M219.94 76.7981L118.434 96.8432C116.632 97.1991 115.309 98.7502 115.234 100.586L109.06 247.858C108.914 251.356 112.193 254.074 115.61 253.258L143.332 246.644C146.867 245.801 150.06 248.926 149.288 252.492L141.051 290.574C140.144 294.766 143.998 298.305 148.109 297.007L165.523 291.519C169.639 290.219 173.498 293.771 172.573 297.968L159.773 356.2C158.932 360.028 164.017 362.173 166.208 358.907L246.827 239.588C249.066 236.274 246.225 231.929 242.276 232.726L213.869 238.454C210.287 239.176 207.226 235.796 208.138 232.268L226.972 159.372C227.898 155.789 224.476 152.716 220.936 153.732L194.759 161.249C191.268 162.251 188.034 159.16 189.02 155.696L220.709 44.369C221.714 40.838 218.589 37.597 215.023 38.368L192.856 43.1587C190.815 43.5999 189.333 45.3908 189.297 47.4775L188.619 86.0652C188.583 88.1322 186.973 89.8982 184.914 90.1871L153.042 94.6594C151.188 94.9194 149.48 93.4461 149.615 91.57L153.123 42.5429C153.257 40.675 151.566 39.2089 149.716 39.4567L103.455 45.6487C101.539 45.9054 100.105 47.5192 100.073 49.4523L99.6469 75.3658C99.6179 77.1297 98.3315 78.6247 96.5987 78.9406L76.0493 82.6849C72.2992 83.3686 69.2868 86.1879 68.2782 89.8917L65.0031 101.915C63.9203 105.889 66.775 109.779 70.8093 110.119L98.7935 112.477C100.809 112.647 102.351 114.303 102.39 116.326L102.954 145.099C102.996 147.264 101.298 149.084 99.14 149.18L75.3011 150.241C73.0942 150.339 71.3357 152.154 71.3246 154.364L71.2747 164.323C71.2636 166.553 73.0905 168.376 75.3207 168.365L100.203 168.242C102.368 168.231 104.143 169.976 104.169 172.14L104.405 191.948C104.432 194.216 106.526 195.899 108.741 195.435L132.131 190.539C135.333 189.868 138.416 192.228 138.416 195.5V216.577C138.416 219.722 141.219 222.123 144.307 221.621L176.861 216.326C180.086 215.801 183.049 218.339 182.987 221.607L182.421 251.621C182.38 253.757 184.169 255.452 186.306 255.317L206.745 254.028C209.024 253.884 210.734 251.921 210.573 249.642L206.12 186.425C205.929 183.712 208.305 181.455 210.997 181.921L238.16 186.616C242.633 187.39 246.431 183.269 245.198 178.89L225.394 108.545C224.438 105.152 221.905 102.593 218.522 101.602L207.532 98.3832C203.47 97.1933 203.657 91.3922 207.789 90.4676L219.498 87.8478C223.272 87.0034 223.693 81.6827 219.94 76.7981Z" fill="#FFEA83"/>
</svg>
